<?xml version="1.0" encoding="utf-8"?>
<!-- Generator: Adobe Illustrator 26.4.1, SVG Export Plug-In . SVG Version: 6.00 Build 0)  -->
<svg version="1.1" id="Capa_1" xmlns="http://www.w3.org/2000/svg" xmlns:xlink="http://www.w3.org/1999/xlink" x="0px" y="0px"
	 viewBox="0 0 500 500" style="enable-background:new 0 0 500 500;" xml:space="preserve">
<g>
	<path d="M452.78,120.96c0,6.58,0,13.16,0,19.74c-0.16,0.64-0.37,1.26-0.46,1.91c-6.83,46.35-52.08,77.86-97.44,67.38
		c-2.82-0.65-4.13,0.44-5.03,2.92c-10,27.85-20.03,55.68-30.09,83.5c-0.79,2.19-0.59,3.66,1.69,4.82
		c9.49,4.84,17.69,11.34,24.56,19.49c1.59,1.89,3.04,1.98,5.07,0.65c11.11-7.29,22.25-14.52,33.43-21.71
		c1.96-1.26,2.54-2.63,1.85-4.94c-1.22-4.05-1.44-8.2-1.05-12.46c2.18-23.86,28.78-38.04,49.81-26.56
		c9.38,5.12,14.71,13.22,17.67,23.17c0,4.47,0,8.95,0,13.42c-0.31,0.86-0.62,1.73-0.92,2.59c-8.24,24.39-34.01,32.43-54.47,16.9
		c-2.01-1.53-3.42-1.19-5.26,0.01c-10.99,7.21-21.98,14.42-33.07,21.46c-2.48,1.57-2.62,3.05-1.39,5.48
		c3.15,6.25,5.11,12.9,6.47,19.77c6.32,31.97-8.64,66.25-36.27,83.41c-10.22,6.35-21.32,10.03-33.03,12.24c-6.84,0-13.69,0-20.53,0
		c-0.25-0.09-0.49-0.21-0.75-0.25c-31.24-5.2-52.98-22.39-65.06-51.67c-1.05-2.53-2.42-2.96-4.86-2.35
		c-7.52,1.89-15.05,3.77-22.64,5.36c-3.17,0.66-4.22,2.13-4.45,5.31c-1.35,18.73-19.87,33.07-38.7,30.16
		c-19.41-3-32.9-22.29-28.34-40.83c3.5-14.24,12.52-23.49,26.89-26.26c14.93-2.88,26.88,2.79,35.19,15.49
		c1.66,2.54,3.25,2.92,5.82,2.27c6.37-1.6,12.78-3.1,19.17-4.62c6.93-1.65,6.94-1.64,6.51-8.87c-0.03-0.53-0.04-1.05-0.05-1.58
		c-0.46-20.55,5.74-38.83,18.79-54.74c1.46-1.78,2.93-3.22,0.64-5.66c-7.28-7.78-14.4-15.72-21.51-23.65
		c-1.59-1.78-2.96-2.06-5.05-0.65c-23.74,15.97-49.07,18.95-75.88,8.98c-2.67-0.99-4.11-0.34-5.38,2.07
		c-2.64,5-5.36,9.97-8.27,14.81c-1.49,2.48-1.05,4.11,0.85,6.2c6.68,7.35,9.84,15.89,8.75,26.02
		c-1.61,14.88-12.24,26.86-27.16,30.07c-13.96,3-29.31-3.97-36.22-16.72c-6.69-12.34-6.25-24.71,1.78-36.16
		c8.23-11.74,19.98-16.24,34.13-13.88c2.72,0.45,4.2-0.31,5.42-2.58c2.74-5.1,5.53-10.17,8.44-15.18c1.23-2.12,1.01-3.61-1.03-4.99
		c-3.83-2.6-7.2-5.75-10.35-9.11c-17.85-19.02-25.38-41.67-21.81-67.38c3.33-24.02,15.61-42.98,35.93-56.47
		c2.48-1.65,2.91-3.11,1.59-5.78c-4.65-9.44-9.04-19.01-13.62-28.48c-3.55-7.35-2.01-6.17-9.56-5.47c-1.67,0.15-3.41-0.11-5.09-0.33
		c-13.96-1.82-23.66-9.41-28.28-22.56c-4.75-13.54-1.68-25.95,8.7-35.81c13.75-13.04,34.81-12.4,47.66,0.83
		c13.29,13.69,13.05,34.34-0.75,48.13c-2.06,2.06-2.29,3.64-1.06,6.16c4.96,10.17,9.88,20.36,14.53,30.67
		c1.51,3.36,3.15,3.98,6.63,2.85c16.69-5.44,33.38-5.02,49.94,0.74c18.47,6.43,32.83,17.99,43.02,34.68
		c1.47,2.41,2.84,3.75,5.98,2.41c22.24-9.54,44.54-18.96,66.85-28.35c2.12-0.89,2.75-2.12,2.13-4.28
		c-3.77-13.16-4.28-26.41-0.96-39.75c0.63-2.53-0.41-3.93-2.81-4.77c-4.59-1.6-9.18-3.25-13.68-5.1c-2.65-1.09-4.21-0.42-6.03,1.77
		c-7.76,9.33-17.68,13.61-29.96,12.44c-19.4-1.84-33.46-20.43-30-39.93c3.38-19.06,23.29-31.84,41.84-26.87
		c15.62,4.19,25.62,17.04,25.57,33.3c-0.01,3.31,0.95,5.09,4.13,6.09c4.51,1.42,8.96,3.08,13.33,4.88c2.5,1.03,3.71,0.38,4.97-1.94
		c5.96-11.04,14.06-20.22,24.12-27.77c32.14-24.11,79.51-19.72,106.74,9.86C443.08,88.09,450.11,103.46,452.78,120.96z
		 M302.66,294.14c2.46,0.5,3.08-1.32,3.72-3.09c10-27.69,19.97-55.39,30.02-83.06c0.96-2.63,0.33-4.06-2.12-5.34
		c-13.59-7.14-24.36-17.33-32.2-30.54c-1.34-2.25-2.75-2.78-5.15-1.75c-22.25,9.48-44.52,18.93-66.81,28.32
		c-2.41,1.02-2.94,2.34-2.27,4.9c7.07,27.39,1.46,52.04-16.41,73.89c-1.69,2.07-1.7,3.29,0.13,5.24c7,7.49,13.93,15.06,20.67,22.79
		c2.18,2.51,3.69,2.72,6.5,0.81c16.37-11.1,34.39-16.01,54.19-13.59C296.18,293.12,299.41,293.66,302.66,294.14z M148.75,158.3
		c-5.11-0.26-11.04,0.81-16.92,2.35c-44.69,11.72-63.95,66.63-36.36,103.65c2.57,3.45,2.91,3.45,4.86-0.22
		c4.64-8.72,11.17-15.63,19.96-20.16c3.28-1.69,3.83-2.8,1.44-5.99c-8.41-11.27-8.49-26.87-0.63-38.52
		c7.74-11.48,22.39-17.41,35.51-14.38c24.38,5.62,34.76,33.6,19.87,53.79c-1.76,2.39-1.48,3.28,1.11,4.58
		c9.34,4.7,16.48,11.77,21.02,21.19c1.63,3.39,2.57,3.11,4.54,0.38c10.62-14.76,15.08-31.05,12.55-49.15
		C211.1,182.84,183.03,158.36,148.75,158.3z M284.45,306.64c-3.81,0.12-7.59,0.23-11.39,0.81c-48.26,7.33-72.23,66.74-42.59,105.51
		c2.27,2.97,3.16,2.43,4.66-0.55c4.51-8.96,11.25-15.89,20.21-20.39c3.36-1.69,3.26-2.81,1.22-5.74
		c-7.7-11.07-8.72-23.03-2.64-35.07c6.26-12.4,16.99-18.76,30.67-18.6c13.68,0.16,24.29,6.79,30.21,19.35
		c5.74,12.16,4.48,24.08-3.5,35.01c-1.73,2.38-1.51,3.39,1.08,4.68c9.23,4.62,16.09,11.7,20.93,20.79c2.01,3.77,2.4,3.82,4.85,0.39
		c9.45-13.2,13.97-27.82,12.69-44.12C348.07,333.18,319.79,306.73,284.45,306.64z M438.78,130.86c-0.1-1.44-0.22-2.89-0.31-4.33
		c-2.33-41.25-41.91-70.56-82.07-60.78c-33.04,8.05-54.75,38.95-50.9,72.76c1.36,12,5.81,22.88,13.16,32.54
		c1.55,2.03,2.46,2.29,3.74-0.33c4.66-9.51,11.71-16.81,21.18-21.59c2.86-1.44,2.8-2.61,1-4.99c-5.79-7.63-7.72-16.37-6.25-25.74
		c2.15-13.67,13.14-24.98,26.46-27.67c14.01-2.82,28.21,3.05,35.68,14.75c7.76,12.16,7.33,27.34-1.38,38.84
		c-2.04,2.7-1.2,3.58,1.31,4.88c9.16,4.74,16.16,11.75,20.71,21c1.53,3.11,2.47,3.07,4.4,0.43
		C434.17,158.76,438.73,145.57,438.78,130.86z M371.93,158.31c-2.37,0-4.74-0.04-7.1,0.01c-13.83,0.27-25.75,8.79-30.64,21.64
		c-1.34,3.52-0.81,5.65,2.61,7.73c13.35,8.1,27.78,11.07,43.14,9.45c9.94-1.05,19.12-4.57,27.65-9.85c2.74-1.7,3.41-3.57,2.3-6.55
		c-2.36-6.33-6.06-11.61-11.42-15.74C390.58,158.92,381.51,157.63,371.93,158.31z M149.53,252.36c-1.71,0-3.42-0.04-5.13,0.01
		c-15.85,0.4-28.21,8.96-32.92,22.6c-1.01,2.93-0.58,4.73,2.17,6.53c21.49,14.07,51.29,13.87,72.36-0.55
		c1.85-1.27,2.35-2.56,1.72-4.62c-2.1-6.9-6.04-12.5-11.69-16.93C168.21,253.26,159.03,252.21,149.53,252.36z M285.12,400.8
		c-3.3,0-5.8-0.07-8.29,0.01c-13.75,0.48-25.94,9.33-30.44,21.99c-0.95,2.66-1.24,4.73,1.68,6.73
		c20.63,14.15,52.41,14.06,72.67-0.32c1.95-1.39,2.39-2.78,1.67-5c-2.24-6.85-6.22-12.4-11.92-16.76
		C302.71,401.49,293.74,400.27,285.12,400.8z M372.01,104.53c-10.98-0.04-19.57,8.34-19.79,19.31c-0.21,10.63,8.69,19.7,19.41,19.78
		c11.03,0.08,20.05-8.75,20.02-19.6C391.62,113.18,382.93,104.56,372.01,104.53z M129.92,218.21c-0.06,11.12,8.17,19.51,19.26,19.63
		c10.96,0.12,19.72-8.35,19.84-19.16c0.12-10.97-8.68-19.97-19.58-20.02C138.67,198.59,129.98,207.3,129.92,218.21z M142.85,426.52
		c10.93-0.02,19.73-8.71,19.71-19.46c-0.02-10.65-8.97-19.64-19.62-19.69c-10.86-0.06-19.98,9.02-19.91,19.81
		C123.1,417.91,131.94,426.54,142.85,426.52z M101.86,83.46C101.81,72.74,92.95,64,82.13,63.98c-10.86-0.02-19.57,8.68-19.58,19.54
		c-0.01,10.97,8.97,19.91,19.84,19.76C93.04,103.14,101.92,94.1,101.86,83.46z M243.95,103.29c10.64-0.04,19.6-8.99,19.69-19.67
		c0.09-10.62-8.85-19.56-19.65-19.64c-10.91-0.08-20.1,9.07-19.88,19.79C224.34,94.5,233.31,103.33,243.95,103.29z M419.22,266.14
		c-10.79-0.07-19.72,8.65-19.84,19.37c-0.12,10.8,8.95,19.95,19.75,19.94c10.72-0.02,19.48-8.82,19.55-19.66
		C438.76,274.94,430.1,266.21,419.22,266.14z M101.86,346.44c0.03-10.64-8.83-19.62-19.55-19.82c-10.73-0.2-19.86,9-19.76,19.9
		c0.1,10.81,9.04,19.74,19.66,19.63C92.91,366.04,101.84,357.08,101.86,346.44z M283.99,386.11c11.1,0.06,20.07-8.75,19.96-19.62
		c-0.1-10.59-8.83-19.34-19.38-19.45c-11.08-0.11-20.07,8.56-20.16,19.46C264.32,377.22,273.14,386.05,283.99,386.11z"/>
</g>
</svg>
