<?xml version="1.0" encoding="utf-8"?>
<!-- Generator: Adobe Illustrator 26.4.1, SVG Export Plug-In . SVG Version: 6.00 Build 0)  -->
<svg version="1.1" id="Capa_1" xmlns="http://www.w3.org/2000/svg" xmlns:xlink="http://www.w3.org/1999/xlink" x="0px" y="0px"
	 viewBox="0 0 500 500" style="enable-background:new 0 0 500 500;" xml:space="preserve">
<g>
	<path d="M262.15,416.8c-0.23,3.21-1.36,5.27-3.53,6.77c-5.5,3.81-11.3,7.09-17.38,9.88c-3.34,1.54-6.36,1-8.89-1.77
		c-4.23-4.62-8.58-9.14-12.65-13.89c-1.78-2.08-3.43-2.08-6-1.77c-6.29,0.76-8.65,4.27-9.28,10.14c-0.46,4.31-1.66,8.54-2.61,12.79
		c-1.12,5-3.3,7.04-8.44,7.23c-5.85,0.22-11.71,0.22-17.56,0c-5.12-0.2-7.29-2.25-8.4-7.27c-1.26-5.71-2.52-11.43-3.62-17.17
		c-0.49-2.55-1.75-3.67-4.25-4.65c-5.49-2.15-9.37-1.13-12.86,3.72c-2.76,3.84-6.36,7.08-9.54,10.63c-2.75,3.06-5.92,3.59-9.58,1.85
		c-5.79-2.76-11.35-5.9-16.65-9.52c-3.36-2.29-4.47-5.31-3.21-9.21c1.92-5.96,3.73-11.96,5.77-17.87c0.79-2.27,0.08-3.66-1.31-5.46
		c-3.64-4.74-7.65-6.07-13.3-3.45c-4.17,1.93-8.77,2.93-13.15,4.41c-4.03,1.36-7.19,0.32-9.58-3.2c-3.6-5.31-6.73-10.88-9.48-16.67
		c-1.75-3.68-1.09-6.81,1.95-9.55c4.65-4.19,9.19-8.51,13.88-12.66c1.77-1.57,1.79-3.11,1.51-5.38c-0.78-6.3-4.13-9.04-10.3-9.59
		c-4.31-0.38-8.54-1.65-12.79-2.61c-4.82-1.09-6.88-3.22-7.09-8.12c-0.25-5.98-0.25-11.99-0.01-17.97c0.2-5.07,2.3-7.2,7.37-8.31
		c5.58-1.22,11.16-2.49,16.78-3.51c2.96-0.54,3.99-2.25,5.08-4.91c2.18-5.31,0.71-8.78-3.65-12.07c-3.9-2.94-7.27-6.56-10.92-9.84
		c-3.07-2.77-3.49-5.96-1.74-9.59c2.72-5.65,5.73-11.14,9.3-16.3c2.69-3.89,5.25-4.73,9.86-3.3c4.81,1.49,9.72,2.76,14.35,4.68
		c4.38,1.81,7.39,1.2,10.65-2.45c2.49-2.79,3.52-4.94,2.09-8.57c-2-5.05-3.45-10.32-5.07-15.52c-1.5-4.8-0.62-7.34,3.49-10.14
		c5.07-3.46,10.44-6.41,15.96-9.09c3.8-1.85,7.05-1.32,9.92,1.88c4.09,4.56,8.32,9,12.38,13.58c1.63,1.84,3.18,2.07,5.68,1.76
		c6.4-0.81,8.9-4.34,9.51-10.38c0.44-4.31,1.66-8.54,2.62-12.78c1.09-4.79,3.26-6.83,8.18-7.01c5.98-0.23,11.99-0.23,17.97,0
		c4.9,0.19,7.08,2.24,8.16,7.04c1.28,5.71,2.51,11.43,3.64,17.17c0.52,2.68,1.86,3.95,4.55,4.94c5.33,1.95,9.1,1.07,12.51-3.68
		c2.84-3.96,6.52-7.3,9.82-10.93c2.65-2.92,5.74-3.37,9.25-1.73c5.81,2.72,11.37,5.87,16.68,9.46c3.5,2.37,4.6,5.51,3.26,9.56
		c-1.92,5.82-3.63,11.7-5.66,17.48c-0.86,2.44-0.04,3.88,1.43,5.8c3.59,4.65,7.46,5.84,12.96,3.26c4.16-1.95,8.75-2.97,13.17-4.34
		c4.59-1.42,7.16-0.57,9.85,3.33c3.57,5.16,6.59,10.65,9.3,16.31c1.74,3.64,1.28,6.83-1.77,9.59c-4.54,4.12-8.93,8.4-13.6,12.36
		c-2.23,1.89-2.83,3.73-1.67,6.36c0.54,1.23,0.85,2.6,1.05,3.93c0.36,2.38,1.74,3.44,4.01,3.89c5.74,1.15,11.44,2.43,17.16,3.68
		c5.68,1.24,7.61,3.39,7.79,9.25c0.17,5.44,0.17,10.9-0.01,16.34c-0.19,5.62-2.15,7.8-7.6,8.99c-5.58,1.23-11.16,2.48-16.77,3.55
		c-2.75,0.52-3.87,2.01-4.86,4.62c-1.96,5.18-1.07,8.86,3.49,12.19c3.83,2.8,7.06,6.38,10.64,9.53c3.34,2.94,3.99,6.27,2.03,10.24
		c-2.72,5.5-5.64,10.88-9.12,15.94c-2.72,3.95-5.27,4.86-9.81,3.46c-5.72-1.77-11.45-3.53-17.09-5.53c-2.54-0.9-4.1-0.18-6.18,1.42
		c-4.73,3.65-5.53,7.53-3.15,13.01C259.33,406.25,260.61,411.89,262.15,416.8z M108.27,370.32c2.61,0.15,4.59,1.15,6.18,3.04
		c3.51,4.18,7.33,8.07,11.49,11.59c3.39,2.87,4.06,6.16,2.67,10.23c-1.75,5.15-3.24,10.4-5.02,15.54c-0.86,2.49-1,4.34,1.81,5.71
		c2.48,1.21,4.45,2.82,6.96-0.33c3.55-4.47,7.67-8.47,11.42-12.79c2.65-3.05,5.69-3.91,9.5-2.55c5.13,1.84,10.4,3.23,15.77,4.18
		c4.03,0.72,6.11,3.04,6.88,6.99c1.12,5.74,2.63,11.41,3.69,17.15c0.57,3.08,2.52,3.54,5,3.54c2.48,0,4.44-0.46,5-3.54
		c1.06-5.75,2.56-11.42,3.68-17.16c0.77-3.95,2.84-6.27,6.88-6.99c5.23-0.93,10.4-2.15,15.37-4.07c4.3-1.66,7.58-0.44,10.48,2.99
		c3.6,4.26,7.58,8.21,11.13,12.51c2.02,2.44,3.69,1.83,5.93,0.5c2.31-1.38,3.9-2.53,2.7-5.73c-1.96-5.22-3.36-10.64-5.16-15.92
		c-1.38-4.06-0.72-7.29,2.61-10.25c3.86-3.43,7.53-7.11,10.97-10.96c2.95-3.31,6.17-4.06,10.24-2.66c4.76,1.63,9.64,2.94,14.38,4.63
		c3.09,1.1,5.22,1.56,7.4-2.04c2.32-3.82,0.2-5.34-2.06-7.36c-3.86-3.45-7.62-7-11.54-10.38c-3.06-2.63-3.98-5.67-2.59-9.48
		c1.82-5,3.3-10.11,4.11-15.36c0.68-4.43,3.18-6.6,7.46-7.39c4.95-0.91,9.83-2.15,14.76-3.17c3.04-0.63,5.7-1.11,5.72-5.37
		c0.02-4.15-2.38-4.91-5.53-5.53c-5.21-1.02-10.37-2.24-15.57-3.31c-3.54-0.73-5.95-2.6-6.64-6.28c-1.05-5.63-2.44-11.17-4.37-16.56
		c-1.31-3.65-0.38-6.6,2.52-9.14c4.4-3.86,8.59-7.97,13.07-11.73c2.34-1.96,2.14-3.62,0.66-5.91c-1.4-2.16-2.36-4.09-5.67-2.84
		c-5.34,2.01-10.89,3.47-16.31,5.28c-3.92,1.3-7.05,0.57-9.9-2.59c-3.45-3.84-7.11-7.54-10.96-10.97c-3.28-2.92-4.19-6.1-2.8-10.21
		c1.83-5.41,3.3-10.95,5.27-16.31c1.12-3.04-0.41-4.14-2.61-5.4c-2.13-1.22-3.83-2.3-5.96,0.25c-3.66,4.38-7.77,8.4-11.44,12.78
		c-2.95,3.52-6.29,4.43-10.52,2.79c-4.84-1.87-9.86-3.14-14.97-3.98c-4.04-0.66-6.2-2.96-7.01-6.88
		c-1.19-5.73-2.62-11.41-3.69-17.15c-0.54-2.92-2.16-3.75-4.82-3.75c-2.71,0-4.67,0.49-5.25,3.73c-1.07,5.89-2.48,11.71-3.77,17.55
		c-0.78,3.54-2.83,5.79-6.51,6.41c-5.38,0.91-10.64,2.31-15.76,4.18c-4.16,1.52-7.31,0.42-10.13-2.91
		c-3.7-4.36-7.78-8.39-11.45-12.77c-2.11-2.53-3.82-1.51-5.95-0.27c-2.17,1.27-3.75,2.34-2.62,5.39c1.93,5.23,3.36,10.64,5.17,15.92
		c1.44,4.2,0.8,7.55-2.67,10.61c-3.87,3.42-7.5,7.13-10.97,10.97c-2.84,3.15-5.97,3.91-9.9,2.61c-5.55-1.84-11.21-3.39-16.71-5.38
		c-3.24-1.17-4,1.02-5.25,2.96c-1.29,2-1.99,3.66,0.32,5.61c4.47,3.78,8.63,7.91,13.07,11.73c3.19,2.74,4.17,5.85,2.7,9.82
		c-1.89,5.12-3.28,10.38-4.18,15.76c-0.64,3.87-3,5.91-6.72,6.69c-5.19,1.08-10.36,2.31-15.56,3.33c-3.17,0.62-5.57,1.36-5.54,5.51
		c0.03,4.23,2.65,4.74,5.71,5.35c5.2,1.04,10.37,2.26,15.56,3.32c3.79,0.77,5.9,2.98,6.59,6.8c0.94,5.23,2.22,10.39,4.07,15.37
		c1.53,4.1,0.6,7.32-2.75,10.18c-4.46,3.79-8.66,7.89-13.06,11.74c-1.63,1.43-1.62,2.61-0.77,4.57c1.68,3.88,3.81,4.85,7.9,3.25
		C96.23,373.76,102.3,372.19,108.27,370.32z"/>
	<path d="M258.73,176.98c-0.15-1.71,0.52-3.2,1.27-4.66c2.18-4.24,4.39-8.46,6.56-12.7c1.95-3.81,1.06-6.1-3.07-7.5
		c-4.64-1.57-9.31-3.05-14.02-4.43c-3.75-1.09-5.87-3.57-6.03-7.33c-0.23-5.3-0.23-10.62-0.03-15.92c0.15-3.95,2.36-6.49,6.27-7.59
		c4.06-1.14,8.07-2.46,12.09-3.74c6.29-2,7.01-3.68,4.08-9.42c-1.98-3.88-3.97-7.76-5.99-11.62c-1.85-3.54-1.47-6.72,1.12-9.82
		c3.33-3.99,6.97-7.63,10.98-10.94c2.97-2.45,6.06-2.86,9.46-1.11c4.36,2.24,8.71,4.5,13.07,6.73c3.9,1.99,6.15,1.18,7.54-2.93
		c1.53-4.51,2.98-9.05,4.27-13.64c1.25-4.46,4.21-6.54,8.65-6.63c4.63-0.1,9.26-0.1,13.89,0c4.45,0.1,7.38,2.21,8.62,6.67
		c1.2,4.32,2.61,8.59,4.01,12.86c1.63,4.97,3.66,5.79,8.19,3.46c4.12-2.12,8.25-4.2,12.34-6.37c3.7-1.96,6.96-1.5,10.15,1.22
		c3.85,3.28,7.41,6.81,10.64,10.69c2.58,3.1,2.93,6.29,1.08,9.82c-2.27,4.34-4.53,8.69-6.75,13.06c-1.84,3.63-0.96,5.95,2.93,7.26
		c4.64,1.57,9.32,3.03,14.02,4.4c4.08,1.19,6.18,3.92,6.32,8.02c0.16,4.9,0.15,9.8,0.02,14.7c-0.11,4.28-2.26,7.09-6.51,8.32
		c-4.58,1.32-9.12,2.77-13.63,4.28c-4.13,1.38-5.03,3.66-3.08,7.48c2.23,4.37,4.49,8.72,6.74,13.07c1.75,3.39,1.43,6.49-1.01,9.48
		c-3.37,4.13-7.12,7.87-11.25,11.24c-2.98,2.44-6.11,2.71-9.49,0.95c-4.11-2.13-8.23-4.24-12.35-6.36c-4.7-2.43-6.79-1.58-8.46,3.57
		c-1.39,4.27-2.78,8.54-4.02,12.86c-1.17,4.07-3.84,6.25-7.96,6.39c-5.03,0.17-10.08,0.17-15.11,0c-4.12-0.14-6.78-2.32-7.96-6.4
		c-1.32-4.58-2.76-9.12-4.27-13.64c-1.41-4.21-3.52-5.08-7.46-3.13c-4.39,2.18-8.73,4.45-13.09,6.7c-3.38,1.75-6.49,1.48-9.48-0.97
		c-4.13-3.38-7.91-7.08-11.24-11.25C259.62,180.62,258.64,179.02,258.73,176.98z M282.77,107.72c-0.35,3.4-2.66,6.32-3.59,9.72
		c-1.03,3.75-3.37,6.02-7.15,7.07c-3.93,1.09-7.75,2.55-11.67,3.68c-2.23,0.64-3.56,1.64-3.55,4.2c0.01,2.61,1.53,3.46,3.69,4.1
		c4.17,1.23,8.3,2.63,12.45,3.94c2.94,0.93,4.85,2.82,5.9,5.74c0.87,2.43,1.88,4.81,2.96,7.16c1.22,2.67,1.17,5.2-0.23,7.81
		c-2.12,3.96-4.02,8.04-6.22,11.95c-1.1,1.95-1.16,3.31,0.52,5c1.72,1.73,3.19,2.21,5.29,0.76c1.45-0.99,3.25-1.47,4.67-2.5
		c7.09-5.13,14.19-5.7,21.93-1.18c2.87,1.68,5.19,3.28,6.17,6.53c1.3,4.3,2.77,8.54,4.06,12.84c0.6,2.02,1.83,2.85,3.88,2.85
		c2.03,0,3.36-0.74,3.92-2.79c0.53-1.97,1.45-3.86,1.78-5.85c1.41-8.49,6-13.76,14.48-16.06c3.35-0.91,6.18-1.5,9.33,0.28
		c3.67,2.07,7.56,3.76,11.2,5.87c2.15,1.25,3.57,1.08,5.31-0.7c1.63-1.67,1.86-3.06,0.59-4.98c-0.97-1.47-1.48-3.25-2.49-4.67
		c-5.03-7.07-5.86-14.14-1.27-21.93c1.77-3.01,3.45-5.36,6.87-6.35c4.05-1.17,8.01-2.63,12.06-3.82c2.08-0.61,3.31-1.58,3.35-3.93
		c0.05-2.53-1.22-3.6-3.48-4.25c-4.05-1.16-8.02-2.62-12.06-3.81c-3.43-1.01-5.59-3.09-6.69-6.51c-0.7-2.19-1.67-4.31-2.66-6.4
		c-1.33-2.8-1.27-5.44,0.23-8.18c2.15-3.94,4-8.05,6.23-11.94c1.19-2.07,0.8-3.37-0.78-4.96c-1.6-1.61-2.98-2.06-4.96-0.72
		c-1.46,0.98-3.26,1.47-4.67,2.5c-7.2,5.32-14.46,5.74-22.3,1.19c-2.75-1.6-4.97-3.16-5.93-6.25c-1.36-4.42-2.84-8.8-4.18-13.23
		c-0.63-2.07-2.03-2.69-4.02-2.66c-1.86,0.03-3.11,0.73-3.65,2.59c-0.57,1.96-1.2,3.9-1.82,5.84c-3.84,11.96-3.85,11.92-15.45,16.58
		c-2.73,1.1-5.22,1.07-7.82-0.33c-3.95-2.13-8.05-4-11.94-6.22c-2.01-1.15-3.36-1.01-4.98,0.66c-1.52,1.57-2.08,2.84-0.86,4.95
		c2.18,3.76,4.05,7.71,6.03,11.59C281.97,104.35,282.7,105.81,282.77,107.72z"/>
	<path d="M344.97,229.4c3.27,0.43,6.23,2.49,9.42,3.96c5.23,2.41,8.07,1.27,10.03-4.15c4.44-12.27,4.44-12.27,17.49-12.19
		c1.9,0.01,3.82,0.01,5.71,0.2c3.41,0.34,5.83,2.14,7.06,5.38c0.91,2.42,1.69,4.89,2.59,7.31c1.61,4.33,4.84,5.68,8.97,3.8
		c1.49-0.68,2.95-1.4,4.42-2.11c6.62-3.22,8.26-2.99,13.82,1.98c0.61,0.54,1.2,1.11,1.78,1.68c9.17,8.89,9.28,9.52,3.83,20.98
		c-2.56,5.38-1.37,8.15,4.37,10.22c11.91,4.29,11.98,4.39,11.9,17.29c-0.01,1.77-0.02,3.54-0.15,5.31
		c-0.27,3.75-2.12,6.39-5.72,7.68c-2.56,0.92-5.17,1.72-7.69,2.73c-3.54,1.4-4.88,4.79-3.35,8.26c0.82,1.87,1.62,3.77,2.68,5.5
		c2.79,4.51,2.13,8.51-1.47,12.21c-0.85,0.88-1.64,1.82-2.49,2.7c-8.89,9.22-9.55,9.34-20.95,3.94c-5.4-2.56-8.27-1.38-10.28,4.24
		c-4.31,12-4.39,12.07-17.22,11.99c-1.9-0.01-3.82-0.01-5.71-0.18c-3.58-0.32-6.09-2.18-7.33-5.6c-0.88-2.43-1.66-4.9-2.58-7.32
		c-1.54-4.07-4.82-5.44-8.73-3.67c-1.86,0.84-3.75,1.65-5.5,2.69c-4.41,2.64-8.23,1.83-11.87-1.55c-3-2.78-5.93-5.61-8.48-8.82
		c-2.28-2.87-2.66-5.83-0.94-9.11c1.2-2.29,2.31-4.63,3.37-6.99c1.55-3.44,0.2-6.91-3.25-8.31c-2.27-0.92-4.59-1.72-6.93-2.43
		c-4.35-1.32-6.53-4.24-6.6-8.72c-0.06-3.81-0.08-7.62,0.01-11.43c0.1-4.28,2.17-7.17,6.34-8.48c2.46-0.78,4.92-1.6,7.31-2.58
		c3.24-1.33,4.63-4.83,3.23-8.02c-1.04-2.37-2.15-4.71-3.37-6.99c-1.82-3.4-1.51-6.47,0.92-9.46c3.02-3.72,6.33-7.11,10.14-10.02
		C341.19,230.22,342.77,229.47,344.97,229.4z M347.82,305.35c-0.27,3.45-2.51,6.5-3.98,9.83c-0.66,1.49-1,2.71,0.35,4.05
		c1.36,1.36,2.62,1.03,4.06,0.29c1.57-0.81,3.24-1.44,4.77-2.32c3.52-2.03,6.72-1.26,10.48-0.1c7.91,2.43,12.99,6.91,14.46,15.21
		c0.25,1.42,1.2,2.38,2.9,2.32c1.5-0.05,2.17-0.97,2.62-2.18c0.76-2.04,1.47-4.1,2.23-6.14c1.86-5.01,13.95-11.65,19.17-10.46
		c1.18,0.27,2.31,0.79,3.43,1.29c1.49,0.66,2.94,1.42,4.41,2.13c1.47,0.71,2.82,1.59,4.45,0.08c1.77-1.65,0.9-3.11,0.17-4.76
		c-1.38-3.09-3.95-5.98-3.57-9.43c0.55-5.03,3.34-9.43,5.4-13.99c1.27-2.83,4.68-2.97,7.18-4.27c2.22-1.15,6.2-0.45,6.22-4.15
		c0.02-3.94-4.13-3.24-6.46-4.39c-2.78-1.37-6.09-1.85-7.56-5.07c-3.45-7.57-7.49-15.14-0.96-23.14c0.08-0.1,0.13-0.24,0.19-0.36
		c0.72-1.35,0.67-2.51-0.5-3.68c-1.17-1.17-2.32-1.19-3.68-0.5c-1.82,0.92-3.7,1.73-5.5,2.7c-3.27,1.77-6.26,1.21-9.74,0.07
		c-7.81-2.56-13.48-6.71-14.86-15.34c-0.22-1.41-1.17-2.39-2.88-2.34c-1.73,0.05-2.29,1.22-2.78,2.54c-0.7,1.92-1.48,3.81-2.07,5.77
		c-1.06,3.56-3.58,5.27-6.84,6.94c-7.18,3.69-13.99,4.91-20.92-0.23c-0.11-0.08-0.24-0.14-0.36-0.19c-1.22-0.57-2.29-0.55-3.35,0.47
		c-1.15,1.1-1.43,2.23-0.73,3.65c1.08,2.2,2.13,4.41,3.19,6.62c0.98,2.04,1.41,4.16,0.58,6.33c-2.95,7.78-5.5,15.96-15.7,17.09
		c-0.13,0.01-0.26,0.08-0.39,0.13c-1.3,0.51-2.49,1.04-2.52,2.79c-0.03,1.72,1.03,2.4,2.38,2.89c1.15,0.42,2.32,0.79,3.48,1.2
		C340.93,288.91,347.63,298.2,347.82,305.35z"/>
	<path d="M193.88,145.12c-1.02-1.2-1.38-1.6-1.71-2.02c-1.75-2.18-5.75-3.8-5.12-6.35c0.88-3.57,4.81-5.67,7.51-8.33
		c1.22-1.2,2.25-0.22,3.14,0.66c5.97,5.96,12,11.87,17.85,17.94c2.84,2.95,2.95,6.66,0.19,9.55c-5.92,6.2-11.66,12.67-18.25,18.09
		c-4.36,3.59-5.43-2.97-8.2-4.54c-1.58-0.89-4.13-2.62-1.37-5.09c1.69-1.51,3.52-2.86,4.94-4.69c-8.36-2.56-16.26-1.31-23.97-0.54
		c-28.36,2.82-54.1,12.78-77.12,29.67c-9.15,6.72-17.34,14.47-24.84,22.94c-2.01,2.26-3.42,2.85-5.92,0.6
		c-8.36-7.54-9.39-4.93-0.84-14c28.12-29.83,62.67-47.28,103.25-52.82c8.38-1.14,16.81-1.2,25.25-1.07
		C190.13,145.14,191.59,145.12,193.88,145.12z"/>
	<path d="M410.23,92.45c-0.85,4.21-1.73,7.9-2.3,11.64c-0.46,2.98-1.84,3.68-4.75,3.19c-9.77-1.63-9.82-1.54-7.94-11.23
		c1.48-7.61,2.97-15.21,4.63-22.78c1.18-5.39,4.1-7.39,9.46-6.4c9.63,1.78,19.21,3.78,28.81,5.68c2.02,0.4,2.92,1.28,2.67,3.65
		c-1.12,10.68-1.27,10.86-11.61,8.88c-1.97-0.38-3.9-1.18-6.44-0.67c3.58,8.22,6.65,16.46,8.32,25.15
		c6.26,32.46-0.26,62.1-19.39,89.06c-2.19,3.09-3.82,3.31-6.73,0.9c-6.82-5.67-6.8-5.46-1.94-13.04
		c18.54-28.84,21.25-59.31,9.14-91.25c-0.24-0.63-0.53-1.25-0.86-1.85C411.2,93.17,410.93,93.04,410.23,92.45z"/>
	<path d="M112.42,315.18c0.02-40.03,32.12-72.03,72.25-72.02c40.26,0.01,72.18,32.11,72.14,72.55
		c-0.04,39.93-32.26,71.87-72.45,71.84C144.4,387.5,112.4,355.31,112.42,315.18z M184.53,373.87c32.91-0.84,58.43-25.59,58.41-58.56
		c-0.01-32.52-24.91-58.1-58.06-58.3c-32.62-0.2-58.49,24.9-58.61,58.16C126.15,348.07,151.51,372.92,184.53,373.87z"/>
	<path d="M321.76,99.35c18.52-0.02,33.05,14.34,33.09,32.72c0.04,18.72-14.38,33.22-33.03,33.2c-18.43-0.01-32.89-14.49-32.89-32.94
		C288.92,113.85,303.34,99.37,321.76,99.35z M341.14,132.19c-0.12-10.44-9.2-19.36-19.46-19.13c-10.33,0.23-18.94,8.89-19.03,19.16
		c-0.09,10.32,8.9,19.35,19.26,19.34C332.26,151.55,341.26,142.49,341.14,132.19z"/>
	<path d="M380.88,256.23c14.78,0.03,26.28,11.62,26.27,26.48c-0.01,14.97-11.67,26.46-26.79,26.37
		c-14.7-0.08-26.12-11.77-26.06-26.69C354.35,267.65,365.99,256.2,380.88,256.23z M393.43,282.59c-0.05-6.51-6.05-12.54-12.58-12.64
		c-6.67-0.11-12.88,6.06-12.84,12.76c0.04,6.66,6.4,12.87,12.97,12.66C387.54,295.15,393.48,289.06,393.43,282.59z"/>
</g>
</svg>
