<?xml version="1.0" encoding="utf-8"?>
<!-- Generator: Adobe Illustrator 26.4.1, SVG Export Plug-In . SVG Version: 6.00 Build 0)  -->
<svg version="1.1" id="Capa_1" xmlns="http://www.w3.org/2000/svg" xmlns:xlink="http://www.w3.org/1999/xlink" x="0px" y="0px"
	 viewBox="0 0 500 500" style="enable-background:new 0 0 500 500;" xml:space="preserve">
<g>
	<path d="M29.62,309.86c1.59-11.48,2.9-23,5.82-34.25c15.73-60.57,50.43-106.94,104.31-138.78c26.53-15.68,55.3-25.24,85.92-28.23
		c63.69-6.22,120.36,11.15,168.9,53.06c38.07,32.87,61.62,74.49,71.84,123.73c4.59,22.1,3.96,44.45,3.95,66.79
		c0,2.54-0.95,3.76-3.54,3.57c-0.71-0.05-1.43,0.01-2.15,0.01c-27.09,0-54.19-0.08-81.28,0.09c-4.25,0.03-6.13-1.09-5.66-5.54
		c0.29-2.84,0.27-5.75,0-8.59c-0.4-4.28,1.55-5.36,5.52-5.34c20.79,0.14,41.57-0.02,62.36,0.13c4.01,0.03,5.46-1.05,5.51-5.29
		c0.53-46.06-13.13-87.43-40.5-124.38c-3.32-4.48-3.34-4.47-7.19-0.62c-10.14,10.14-20.34,20.21-30.36,30.46
		c-2.38,2.43-3.99,2.56-6.22-0.02c-2.24-2.6-4.69-5.05-7.29-7.29c-2.66-2.29-2.73-3.95-0.1-6.51c10.88-10.61,21.5-21.47,32.33-32.14
		c2.09-2.06,2.27-3.42,0.06-5.56c-26.27-25.49-56.9-43.24-92.44-52.37c-11.55-2.97-23.31-4.55-35.14-5.8
		c-3.52-0.37-4.86,0.68-4.8,4.39c0.18,12.04-0.04,24.08,0.12,36.12c0.05,3.68-1.1,5.3-4.92,5.02c-3.28-0.24-6.6-0.21-9.89-0.01
		c-3.63,0.23-4.71-1.37-4.67-4.82c0.13-12.18-0.05-24.37,0.11-36.55c0.05-3.55-1.32-4.43-4.61-4.16
		c-34.35,2.84-66.14,13.23-95.13,32c-11.72,7.59-22.33,16.53-32.5,26.04c-2.44,2.28-2.11,3.7,0.1,5.88
		c10.63,10.45,21.01,21.16,31.73,31.52c3.08,2.98,3,4.85-0.15,7.45c-2.53,2.09-4.84,4.49-7,6.98c-2.15,2.48-3.69,2.2-5.9-0.05
		c-10.24-10.43-20.72-20.63-30.92-31.11c-2.57-2.64-3.96-2.69-6.19,0.3c-21.2,28.35-34.56,59.89-39.28,95.06
		c-1.3,9.69-1.75,19.39-1.71,29.14c0.03,6.24,0.01,6.26,6.1,6.26c20.36,0.01,40.71,0,61.07,0.01c5.96,0,6.05,0.12,6.08,5.94
		c0.07,13.37,0.07,13.37-13.17,13.37c-24.51,0-49.03,0.01-73.54-0.01c-1.85,0-3.7-0.19-5.56-0.29
		C29.62,340.25,29.62,325.06,29.62,309.86z"/>
	<path d="M254.82,392.63c-28.83,0.06-51.62-22.12-51.34-48.36c0.2-19.01,8.41-34.48,25.53-43.29c24.44-12.58,49.48-24,74.28-35.88
		c15.89-7.61,31.8-15.17,47.72-22.73c1.13-0.54,2.54-1.81,3.51-0.97c1.39,1.19-0.16,2.64-0.72,3.82
		c-17.72,37.25-35.53,74.46-53.22,111.72c-3.76,7.92-7.51,15.78-14.08,21.88C276.82,387.79,265.39,392.31,254.82,392.63z
		 M315.36,280.92c-2.28,0.97-3.34,1.37-4.36,1.85c-15.27,7.26-30.55,14.5-45.81,21.8c-9.05,4.33-18.28,8.34-27.04,13.18
		c-19.17,10.59-20.52,37.15-2.8,49.98c14.79,10.71,35.42,5.59,43.87-11.31c8.2-16.4,15.88-33.07,23.79-49.62
		C306.95,298.56,310.89,290.3,315.36,280.92z"/>
</g>
</svg>
