<?xml version="1.0" encoding="utf-8"?>
<!-- Generator: Adobe Illustrator 26.4.1, SVG Export Plug-In . SVG Version: 6.00 Build 0)  -->
<svg version="1.1" id="Capa_1" xmlns="http://www.w3.org/2000/svg" xmlns:xlink="http://www.w3.org/1999/xlink" x="0px" y="0px"
	 viewBox="0 0 500 500" style="enable-background:new 0 0 500 500;" xml:space="preserve">
<g>
	<path d="M243.23,172.49c0-9.41-0.07-18.83,0.04-28.24c0.03-2.75-0.83-3.88-3.69-3.79c-5.37,0.16-10.78,0.36-16.13-0.06
		c-4.37-0.34-5.78,1.36-6.31,5.46c-1.98,15.3-7.88,29.1-17.84,40.84c-22.34,26.34-50.92,36.78-84.49,28.97
		c-34.25-7.97-55.8-30.4-63.47-64.75c-10.53-47.21,22.42-93.87,70.18-100.58c46.54-6.53,88.86,24.98,95.61,71.35
		c0.6,4.11,2.03,5.5,6.34,5.44c17.75-0.26,35.5-0.27,53.25,0c4.24,0.06,5.46-1.49,6.04-5.31c3.91-25.84,16.99-45.86,39.06-59.77
		c51.12-32.23,119.96,0.11,127.76,59.9c6.23,47.78-26.13,90.19-74.21,95.58c-47.23,5.3-85.86-28.05-92.55-70.73
		c-0.99-6.29-0.89-6.31-7.41-6.31c-4.98,0-9.95,0.1-14.92-0.04c-2.71-0.08-3.84,0.76-3.83,3.66c0.09,18.96,0.08,37.92,0.01,56.88
		c-0.01,2.63,0.95,3.47,3.54,3.54c8.04,0.2,9.39,1.74,9.4,9.95c0.01,9.36,0.01,9.36,9.34,9.36c12.64,0,25.28-0.03,37.92,0.01
		c10.65,0.03,17.24,6.7,17.29,17.43c0.03,6.05,0.05,12.1-0.01,18.15c-0.09,9.65-6.89,16.54-16.49,16.59
		c-14.52,0.07-29.05,0.13-43.57-0.05c-3.59-0.04-4.87,1.11-4.52,4.62c0.24,2.4,0.09,4.84,0.03,7.26c-0.12,5.06-2.4,7.37-7.4,7.55
		c-5.49,0.2-5.5,0.2-5.5,5.54c0,17.88,0.08,35.77-0.07,53.65c-0.03,3.58,0.81,5.13,4.69,4.88c4.95-0.32,9.95-0.07,14.92-0.08
		c5.68,0,5.69,0,6.49-5.54c2.14-14.85,7.7-28.35,17.25-39.85c22.27-26.83,50.99-37.61,84.92-29.82c34.28,7.87,55.78,30.3,63.66,64.6
		c10.84,47.19-22.62,94.34-70.83,100.79c-45.15,6.04-86.08-23.58-94.61-68.47c-1.57-8.24-1.57-8.24-10.16-8.24
		c-16.54,0-33.08,0.14-49.62-0.1c-4.05-0.06-5.51,1.17-6.17,5.16c-5.46,33.09-23.97,55.93-55.29,67.64
		c-49.32,18.43-104.8-15.39-111.52-67.52c-6.18-47.97,25.85-90.1,74.07-95.68c46.96-5.43,85.84,27.71,92.66,70.58
		c1.02,6.42,0.91,6.44,7.29,6.44c5.11,0,10.22-0.09,15.33,0.03c2.6,0.07,3.56-0.89,3.55-3.52c-0.07-18.96-0.08-37.92,0.01-56.88
		c0.01-2.89-1.11-3.64-3.82-3.67c-7.5-0.09-9.11-1.87-9.13-9.41c-0.03-9.9-0.03-9.9-10.01-9.9c-12.51,0-25.01,0.03-37.52-0.01
		c-10.18-0.04-16.94-6.78-17.01-16.89c-0.04-6.45-0.08-12.91,0.02-19.36c0.14-8.88,7.04-15.84,15.93-15.9
		c14.39-0.11,28.78-0.03,43.16-0.04c5.42,0,5.42-0.01,5.43-5.6c0-2.02-0.03-4.03,0.01-6.05c0.11-5.3,2.36-7.55,7.65-7.7
		c5.24-0.15,5.25-0.15,5.25-5.38C243.24,190.24,243.23,181.37,243.23,172.49z M94.97,121.07c0-6.18-0.63-12.44,0.11-18.53
		C97.61,81.88,115.66,67.78,137.4,69c18.57,1.04,35.12,18.85,35.37,38.18c0.1,8.06-0.15,16.13,0.07,24.19
		c0.39,14.71-5.17,26.38-17.25,34.84c-1.61,1.13-2.51,2.46-2.03,4.4c0.57,2.3,2.57,1.63,4.02,1.55c8.63-0.46,16.1,2.36,22.77,7.65
		c4.1,3.26,4.14,3.3,7.42-0.73c12.27-15.06,17.73-32.19,16.15-51.66c-3.25-40.11-40.81-70.16-82.06-63.22
		c-37.2,6.26-65.09,42.53-57.24,83.05c2.41,12.42,7.8,23.39,16.14,32.88c1.12,1.27,2.17,3.5,4.5,1.38
		c7.3-6.66,15.81-9.97,25.77-9.33c1.17,0.07,2.58,0.2,2.95-1.39c0.31-1.34,0.29-2.71-0.9-3.71c-0.61-0.52-1.29-0.97-1.94-1.44
		c-8.38-5.97-13.51-14.05-15.65-24.07C94.02,134.78,95.18,127.9,94.97,121.07z M133.51,301.32c21.37-0.04,39.07,17.41,39.27,38.78
		c0.08,8.06-0.11,16.13,0.05,24.19c0.29,14.4-5.27,25.82-17.03,34.15c-1.71,1.21-2.84,2.58-2.21,4.69c0.66,2.19,2.67,1.49,4.12,1.42
		c8.79-0.46,16.53,2.32,22.97,8.09c2.99,2.68,4.52,1.99,6.69-0.63c13.61-16.44,19.19-35.31,16.15-56.35
		c-6.47-44.81-53.73-71.87-95.75-55.13c-30.22,12.04-48.21,42.79-43.82,75.28c1.88,13.93,7.56,26.26,16.89,36.82
		c1.17,1.32,2.24,3.28,4.53,1.18c7.28-6.68,15.85-9.9,25.79-9.25c1.06,0.07,2.33,0.14,2.74-1.15c0.41-1.3,0.46-2.7-0.65-3.76
		c-0.67-0.64-1.49-1.14-2.24-1.71c-10.46-7.82-16.09-18.18-16.22-31.33c-0.09-8.87-0.06-17.74-0.01-26.61
		C94.92,318.43,112.03,301.36,133.51,301.32z M365.96,301.32c21.35-0.03,39,17.44,39.2,38.85c0.07,8.06-0.11,16.13,0.05,24.19
		c0.27,14.4-5.32,25.81-17.09,34.11c-1.73,1.22-2.8,2.65-2.12,4.72c0.7,2.14,2.72,1.42,4.17,1.35c8.64-0.44,16.3,2.23,22.63,7.89
		c3.27,2.92,4.92,2.11,7.27-0.79c14.2-17.58,19.43-37.46,15.16-59.62c-7.19-37.32-44.53-62.5-81.59-55.26
		c-39.65,7.75-64.36,44.35-56.46,83.88c2.42,12.09,7.88,22.81,16.11,32.04c1.06,1.18,2.1,3.25,4.2,1.33
		c7.41-6.77,16.04-10.12,26.14-9.44c1.07,0.07,2.32,0.09,2.69-1.22c0.37-1.3,0.42-2.71-0.73-3.75c-0.69-0.63-1.5-1.13-2.25-1.69
		c-10.45-7.84-16.04-18.22-16.16-31.36c-0.08-8.87-0.06-17.74,0-26.61C327.3,318.39,344.45,301.35,365.96,301.32z M327.35,121.07
		c0-6.18-0.63-12.44,0.12-18.53C330,81.85,348.09,67.75,369.82,69c18.59,1.07,35.09,18.89,35.33,38.25
		c0.1,8.34-0.08,16.68,0.05,25.01c0.22,14.25-5.37,25.54-16.99,33.78c-1.7,1.21-2.85,2.55-2.24,4.68c0.64,2.22,2.65,1.52,4.1,1.45
		c8.64-0.45,16.1,2.42,22.75,7.73c4.01,3.2,4.05,3.24,7.41-0.91c14.12-17.45,19.24-37.27,15.01-59.29
		c-7.14-37.16-44.41-62.17-81.26-55.45c-37.95,6.91-65.01,43.48-56.87,83.75c2.47,12.24,7.92,23.08,16.25,32.42
		c1.1,1.23,2.15,3.06,4.24,1.14c7.4-6.81,16.08-9.97,26.18-9.41c2.55,0.14,3.65-2.28,2.18-4.41c-0.58-0.85-1.57-1.44-2.44-2.06
		c-8.38-5.98-13.51-14.06-15.67-24.08C326.39,134.79,327.56,127.9,327.35,121.07z M250.4,237.33c-21.63,0-43.27-0.01-64.9,0.01
		c-5.46,0-6.21,0.8-6.24,6.35c-0.02,3.22,0,6.45,0,9.67c0,9.22,0,9.22,9.02,9.22c35.07,0,70.14,0,105.21,0
		c7.26,0,14.51,0.04,21.77-0.02c4.4-0.03,5.37-1.05,5.43-5.54c0.05-3.9,0.01-7.79,0.01-11.69c0-7.8-0.21-8.01-7.82-8.01
		C292.05,237.33,271.22,237.33,250.4,237.33z M159.32,124.78c0-3.52-0.17-6.48,0.04-9.42c0.26-3.52-0.96-3.73-3.92-2.54
		c-14.21,5.71-28.98,8.79-44.33,8.79c-2.04,0-2.98,0.49-2.89,2.67c0.18,4.55-0.15,9.1,0.63,13.65c2.07,12.11,12.4,21.1,24.75,21.3
		c12.22,0.2,23.02-9.08,25.11-21.36C159.49,133.32,159.18,128.77,159.32,124.78z M391.7,125.06c0-3.65-0.13-6.74,0.04-9.82
		c0.17-3.07-0.66-3.73-3.65-2.52c-14.33,5.77-29.22,8.92-44.71,8.88c-2.18-0.01-2.85,0.76-2.77,2.8c0.18,4.42-0.16,8.83,0.59,13.25
		c2.1,12.4,12.51,21.52,24.91,21.58c12.32,0.06,22.91-9.14,25-21.48C391.86,133.33,391.56,128.92,391.7,125.06z M159.32,357.44
		c0-3.64-0.13-6.74,0.04-9.82c0.17-3.06-0.64-3.74-3.64-2.53c-14.33,5.78-29.22,8.92-44.71,8.89c-2.17-0.01-2.86,0.74-2.77,2.79
		c0.18,4.42-0.16,8.83,0.59,13.25c2.1,12.4,12.5,21.52,24.91,21.58c12.31,0.07,22.92-9.14,25.01-21.47
		C159.48,365.71,159.19,361.3,159.32,357.44z M391.7,357.43c0-3.65-0.14-6.74,0.04-9.82c0.17-3.09-0.68-3.71-3.65-2.51
		c-14.33,5.77-29.22,8.92-44.71,8.88c-2.18-0.01-2.84,0.78-2.76,2.81c0.18,4.42-0.16,8.83,0.59,13.25
		c2.1,12.4,12.53,21.52,24.92,21.57c12.32,0.05,22.9-9.14,24.99-21.48C391.86,365.7,391.56,361.29,391.7,357.43z M116.7,107.68
		c11.74-0.56,24.55-3.8,36.95-8.91c2.85-1.18,2.4-2.57,1.02-4.56c-5.47-7.92-12.97-12.24-22.57-11.47
		c-11.06,0.88-18.76,6.81-22.38,17.48C107.31,107.36,107.67,107.76,116.7,107.68z M349.06,107.69c11.3-0.47,24.25-3.68,36.78-8.85
		c2.59-1.07,2.88-2.23,1.34-4.47c-5.54-8.05-13.11-12.46-22.89-11.61c-11.44,1-19.11,7.32-22.49,18.41
		C339.91,107.37,340.3,107.74,349.06,107.69z M116.72,340.06c11.8-0.57,24.61-3.82,37.01-8.95c2.95-1.22,2.21-2.7,0.9-4.59
		c-5.48-7.9-12.99-12.19-22.6-11.4c-11.07,0.92-18.73,6.87-22.32,17.55C107.33,339.75,107.7,340.14,116.72,340.06z M349.04,340.06
		c11.64-0.53,24.46-3.75,36.86-8.86c2.67-1.1,2.72-2.34,1.24-4.5c-5.44-7.93-12.93-12.32-22.52-11.6
		c-11.22,0.85-19.02,6.87-22.59,17.75C339.76,339.73,340.13,340.13,349.04,340.06z M111,185.68c-4.92-0.04-9.06,0.85-12.82,3.23
		c-4.14,2.61-4.18,3.29,0.12,5.77c14.48,8.37,30.06,11.23,46.54,8.74c8.97-1.35,17.43-4.4,25.18-9.21c3.36-2.09,3.32-2.62,0-4.89
		c-4.04-2.76-8.56-3.58-13.37-3.69c-2.89-0.07-4.52,0.85-6.04,3.44c-7.4,12.66-26,12.84-33.46,0.29
		C115.45,186.52,113.73,185.02,111,185.68z M343.44,185.68c-4.89-0.05-9.04,0.82-12.81,3.17c-4.2,2.62-4.25,3.33-0.04,5.77
		c14.07,8.17,29.25,11.14,45.33,8.99c9.68-1.29,18.74-4.57,27.09-9.74c2.31-1.43,2.31-2.51,0.13-4.06
		c-4.1-2.91-8.65-4.03-13.63-4.18c-3.13-0.09-5,0.76-6.72,3.69c-7.3,12.41-25.83,12.46-33.24,0.12
		C347.9,186.66,346.26,184.98,343.44,185.68z M110.93,418.05c-4.84,0-8.86,0.84-12.52,3.09c-4.43,2.72-4.48,3.4,0,5.98
		c14.36,8.27,29.82,11.13,46.16,8.72c9.24-1.36,17.91-4.58,25.92-9.5c2.54-1.56,2.42-2.67,0.09-4.29c-4.14-2.88-8.7-3.91-13.67-4.06
		c-3.02-0.09-4.77,0.8-6.38,3.55c-7.4,12.62-26.03,12.67-33.45,0.07C115.37,418.71,113.52,417.48,110.93,418.05z M343.42,418.06
		c-4.9-0.05-9.04,0.83-12.81,3.18c-4.18,2.62-4.24,3.32-0.01,5.77c14.47,8.38,30.05,11.27,46.53,8.79
		c9.24-1.39,17.9-4.61,25.89-9.57c2.34-1.45,2.23-2.53,0.09-4.06c-4.1-2.92-8.66-4.02-13.63-4.17c-3.14-0.1-4.99,0.8-6.7,3.71
		c-7.31,12.4-25.84,12.43-33.24,0.09C347.88,419.01,346.23,417.37,343.42,418.06z M133.87,172.72c-2.48,0.58-6.58-1.79-6.31,3.86
		c0.24,5.07,2.47,8.36,6.26,8.33c3.78-0.03,5.96-3.33,6.19-8.41C140.25,171.21,136.49,173.14,133.87,172.72z M366.25,172.72
		c-2.48,0.58-6.58-1.79-6.31,3.86c0.24,5.07,2.47,8.36,6.26,8.34c3.79-0.03,5.96-3.32,6.19-8.41
		C372.63,171.21,368.87,173.14,366.25,172.72z M133.85,405.11c-2.35,0.65-6.51-1.89-6.28,3.79c0.21,5.08,2.41,8.38,6.19,8.4
		c3.78,0.02,5.99-3.28,6.26-8.35C140.29,403.7,136.61,405.44,133.85,405.11z M366.07,405.14c-2.46,0.43-6.45-1.68-6.14,3.91
		c0.28,5.05,2.56,8.34,6.34,8.25c3.66-0.09,5.76-3.25,6.11-8.09C372.78,403.78,369.04,405.35,366.07,405.14z M249.33,223.84
		c1.54,0,2.74-0.06,3.94,0.01c2.37,0.13,3.28-1.22,2.81-3.23c-1.22-5.26-5.46-1.8-8.23-2.56c-1.86-0.51-4.11-0.43-4.06,2.74
		C243.87,225.63,247.57,223.13,249.33,223.84z M249.63,281.92c1.57,0,2.77-0.02,3.97,0c1.91,0.04,2.52-1,2.54-2.76
		c0.02-1.86-0.41-3.16-2.62-3.09c-1.2,0.04-2.46-0.24-3.58,0.04c-2.18,0.54-5.94-1.96-6.09,2.73
		C243.69,283.97,247.87,281.06,249.63,281.92z"/>
	<path d="M288.67,256.69c-6.17,0-12.34,0.05-18.51-0.02c-4.68-0.05-7.44-2.52-7.53-6.54c-0.09-4.22,2.7-6.87,7.57-6.89
		c12.34-0.05,24.68-0.05,37.02,0c4.68,0.02,7.44,2.52,7.53,6.53c0.09,4.21-2.72,6.84-7.58,6.9
		C301.01,256.74,294.84,256.69,288.67,256.69z"/>
	<path d="M198.57,249.84c0.06,3.93-2.85,6.86-6.78,6.82c-3.77-0.04-6.56-2.81-6.61-6.59c-0.06-3.95,2.84-6.85,6.78-6.81
		C195.74,243.29,198.52,246.06,198.57,249.84z"/>
	<path d="M217.94,250c-0.02,3.92-3.01,6.78-6.95,6.65c-3.74-0.12-6.47-2.97-6.45-6.75c0.02-3.93,2.99-6.77,6.94-6.65
		C215.23,243.37,217.96,246.22,217.94,250z"/>
	<path d="M230.65,243.26c3.93,0.02,6.78,3,6.65,6.94c-0.12,3.74-2.98,6.48-6.75,6.45c-3.93-0.02-6.77-2.99-6.65-6.95
		C224.03,245.95,226.87,243.23,230.65,243.26z"/>
</g>
</svg>
